<svg height="12" width="12"  viewBox="0 0 25 25" xmlns="http://www.w3.org/2000/svg">
<path d="M5.57241 3.69846C4.68855 3.68303 3.96016 4.38642 3.94473 5.27029L3.69342 19.6681C3.67799 20.552 4.38138 21.2803 5.26525 21.2958L13.8139 21.445C14.6834 23.3476 16.5835 24.6938 18.8073 24.7326C21.8902 24.7865 24.4504 22.3141 24.5042 19.2312C24.543 17.0074 23.264 15.0614 21.3928 14.1261L21.5421 5.57745C21.5575 4.69359 20.8541 3.9652 19.9702 3.94977L5.57241 3.69846ZM5.54449 5.29821L19.9423 5.54953L19.8864 8.74904L5.48864 8.49772L5.54449 5.29821ZM9.44615 10.9672C9.88768 10.9749 10.2398 11.3395 10.2321 11.781C10.2244 12.2225 9.85975 12.5746 9.41822 12.5669C8.97669 12.5592 8.6246 12.1946 8.63231 11.7531C8.64001 11.3116 9.00461 10.9595 9.44615 10.9672ZM12.6457 11.023C13.0872 11.0307 13.4393 11.3953 13.4316 11.8369C13.4239 12.2784 13.0593 12.6305 12.6177 12.6228C12.1762 12.6151 11.8241 12.2505 11.8318 11.8089C11.8395 11.3674 12.2041 11.0153 12.6457 11.023ZM15.8452 11.0789C16.2867 11.0866 16.6388 11.4512 16.6311 11.8927C16.6234 12.3342 16.2588 12.6863 15.8172 12.6786C15.3757 12.6709 15.0236 12.3063 15.0313 11.8648C15.039 11.4232 15.4036 11.0712 15.8452 11.0789ZM19.0447 11.1347C19.4862 11.1424 19.8383 11.507 19.8306 11.9486C19.8229 12.3901 19.4583 12.7422 19.0168 12.7345C18.5752 12.7268 18.2231 12.3622 18.2308 11.9206C18.2385 11.4791 18.6031 11.127 19.0447 11.1347ZM6.19079 14.1108C6.63232 14.1185 6.98441 14.4831 6.9767 14.9247C6.96899 15.3662 6.60439 15.7183 6.16286 15.7106C5.72133 15.7029 5.36924 15.3383 5.37695 14.8967C5.38465 14.4552 5.74925 14.1031 6.19079 14.1108ZM9.3903 14.1667C9.83183 14.1744 10.1839 14.539 10.1762 14.9805C10.1685 15.4221 9.80391 15.7741 9.36237 15.7664C8.92084 15.7587 8.56875 15.3941 8.57646 14.9526C8.58416 14.5111 8.94877 14.159 9.3903 14.1667ZM12.5898 14.2225C13.0313 14.2302 13.3834 14.5948 13.3757 15.0364C13.368 15.4779 13.0034 15.83 12.5619 15.8223C12.1204 15.8146 11.7683 15.45 11.776 15.0084C11.7837 14.5669 12.1483 14.2148 12.5898 14.2225ZM18.9749 15.1341C21.1931 15.1728 22.9432 16.985 22.9045 19.2033C22.8657 21.4216 21.0535 23.1716 18.8353 23.1329C16.617 23.0942 14.867 21.282 14.9057 19.0637C14.9444 16.8454 16.7566 15.0954 18.9749 15.1341ZM18.9486 15.9228C18.7367 15.9224 18.5333 16.0061 18.383 16.1556C18.2327 16.305 18.1479 16.508 18.1471 16.7199L18.0994 19.4507L19.5024 20.9036C19.5748 20.9816 19.662 21.0444 19.7589 21.0884C19.8559 21.1323 19.9606 21.1564 20.067 21.1594C20.1734 21.1623 20.2793 21.144 20.3785 21.1055C20.4778 21.067 20.5683 21.0091 20.6449 20.9351C20.7214 20.8612 20.7825 20.7727 20.8244 20.6749C20.8664 20.5771 20.8884 20.4719 20.8891 20.3654C20.8899 20.259 20.8695 20.1535 20.8289 20.055C20.7884 19.9566 20.7287 19.8673 20.6532 19.7922L19.7107 18.8163L19.7468 16.7478C19.7502 16.6408 19.732 16.5343 19.6934 16.4344C19.6548 16.3346 19.5966 16.2435 19.5221 16.1666C19.4477 16.0896 19.3586 16.0284 19.2601 15.9866C19.1616 15.9447 19.0556 15.923 18.9486 15.9228ZM6.13494 17.3103C6.57647 17.3181 6.92856 17.6827 6.92085 18.1242C6.91315 18.5657 6.54855 18.9178 6.10701 18.9101C5.66548 18.9024 5.31339 18.5378 5.3211 18.0963C5.3288 17.6547 5.69341 17.3026 6.13494 17.3103ZM9.33445 17.3662C9.77598 17.3739 10.1281 17.7385 10.1204 18.18C10.1127 18.6216 9.74806 18.9737 9.30653 18.9659C8.86499 18.9582 8.5129 18.5936 8.52061 18.1521C8.52832 17.7106 8.89292 17.3585 9.33445 17.3662ZM12.534 17.422C12.9755 17.4297 13.3276 17.7943 13.3199 18.2359C13.3122 18.6774 12.9476 19.0295 12.506 19.0218C12.0645 19.0141 11.7124 18.6495 11.7201 18.208C11.7278 17.7664 12.0924 17.4143 12.534 17.422Z" />
</svg>