<svg fill="none" height="12" viewBox="0 0 12 12" width="12" xmlns="http://www.w3.org/2000/svg" xmlns:xlink="http://www.w3.org/1999/xlink"><clipPath id="a"><path d="m0 0h12v12h-12z"/></clipPath><g clip-path="url(#a)"><path d="m5.995 1c-2.76 0-4.995 2.24-4.995 5s2.235 5 4.995 5c2.765 0 5.005-2.24 5.005-5s-2.24-5-5.005-5zm.005 9c-2.21 0-4-1.79-4-4s1.79-4 4-4 4 1.79 4 4-1.79 4-4 4zm-.11-6.5h-.03c-.2 0-.36.16-.36.36v2.36c0 .175.09.34.245.43l2.075 1.245c.17.1.39.05.49-.12.105-.17.05-.395-.125-.495l-1.935-1.15v-2.27c0-.2-.16-.36-.36-.36z" fill="#a9b0b8"/></g></svg>